<svg width="32" height="35" viewBox="0 0 32 35" fill="none" xmlns="http://www.w3.org/2000/svg">
<path d="M30.3306 2.75613C25.8398 0.979223 20.7522 0 16.003 0C11.1138 0 6.01847 0.963838 1.65235 2.71228C0.0908225 3.34536 -0.177637 4.4615 0.0915916 5.2938L0.404666 6.07687C0.466089 6.23022 0.557754 6.36964 0.674199 6.48681C0.790644 6.60398 0.929485 6.69651 1.08245 6.75889C1.23541 6.82127 1.39937 6.85221 1.56455 6.84988C1.72972 6.84755 1.89274 6.812 2.04388 6.74533C2.87464 6.37918 3.88464 5.93457 4.12079 5.83918C7.50614 4.43381 11.63 3.69228 16.0368 3.69228C20.4576 3.69228 24.3514 4.40304 27.9414 5.86533C28.2814 6.0038 29.086 6.35918 29.9544 6.74687C30.1052 6.81423 30.2681 6.85055 30.4333 6.85365C30.5984 6.85675 30.7625 6.82658 30.9158 6.76492C31.069 6.70326 31.2083 6.61138 31.3253 6.49476C31.4423 6.37814 31.5346 6.23916 31.5967 6.0861L31.8829 5.38457L31.909 5.31534C32.1744 4.52996 31.9198 3.38843 30.3306 2.75613Z" fill="white"/>
<path d="M27.8198 8.37377C24.319 6.96379 20.0122 6.15379 16.003 6.15379C11.9574 6.15645 7.94746 6.90998 4.1769 8.37608C4.13613 8.39224 4.01844 8.44377 3.84691 8.5207C3.6986 8.58716 3.56493 8.68234 3.4536 8.80075C3.34228 8.91915 3.25551 9.05843 3.19829 9.21054C3.14108 9.36265 3.11456 9.52459 3.12027 9.68701C3.12597 9.84943 3.16378 10.0091 3.23153 10.1568C3.53922 10.8268 3.95614 11.7399 4.42382 12.7637C6.95534 18.3075 11.6684 28.6151 13.8261 33.0766C14.0259 33.4929 14.3397 33.8439 14.731 34.0889C15.1223 34.334 15.5751 34.4631 16.0368 34.4612C16.4993 34.4631 16.9528 34.3335 17.3444 34.0875C17.7361 33.8416 18.0498 33.4894 18.2491 33.072L18.2537 33.062L28.8152 10.1722C28.885 10.0224 28.9239 9.86006 28.9294 9.69487C28.9349 9.52968 28.907 9.36508 28.8473 9.21096C28.7876 9.05683 28.6973 8.91637 28.582 8.79802C28.4666 8.67966 28.3285 8.58586 28.1759 8.52223C28.0021 8.44916 27.8798 8.39839 27.8298 8.37839L27.8198 8.37377ZM11.2738 14.7637C10.7743 14.7963 10.2768 14.6758 9.8476 14.4184C9.41837 14.161 9.07781 13.7789 8.87132 13.3229C8.66484 12.867 8.60224 12.359 8.69188 11.8666C8.78152 11.3742 9.01914 10.9208 9.37304 10.5669C9.72695 10.213 10.1803 9.97534 10.6727 9.8857C11.1652 9.79606 11.6732 9.85866 12.1291 10.0651C12.585 10.2716 12.9672 10.6122 13.2246 11.0414C13.482 11.4706 13.6025 11.9681 13.5699 12.4676C13.531 13.0638 13.2766 13.6255 12.8542 14.048C12.4317 14.4704 11.87 14.7248 11.2738 14.7637ZM16.1968 24.6098C15.6974 24.6424 15.1999 24.5219 14.7706 24.2645C14.3414 24.0071 14.0008 23.6249 13.7944 23.169C13.5879 22.7131 13.5253 22.205 13.6149 21.7126C13.7046 21.2202 13.9422 20.7668 14.2961 20.4129C14.65 20.059 15.1034 19.8214 15.5958 19.7318C16.0882 19.6421 16.5962 19.7047 17.0521 19.9112C17.5081 20.1177 17.8902 20.4583 18.1476 20.8875C18.405 21.3167 18.5255 21.8142 18.4929 22.3137C18.4541 22.9099 18.1997 23.4716 17.7772 23.894C17.3547 24.3165 16.793 24.5709 16.1968 24.6098ZM21.1198 15.9945C20.6204 16.027 20.1229 15.9066 19.6937 15.6492C19.2644 15.3918 18.9239 15.0096 18.7174 14.5537C18.5109 14.0978 18.4483 13.5897 18.538 13.0973C18.6276 12.6049 18.8652 12.1515 19.2191 11.7976C19.573 11.4437 20.0264 11.2061 20.5188 11.1165C21.0112 11.0268 21.5193 11.0894 21.9752 11.2959C22.4311 11.5024 22.8132 11.8429 23.0707 12.2722C23.3281 12.7014 23.4485 13.1989 23.416 13.6983C23.3771 14.2945 23.1227 14.8563 22.7002 15.2787C22.2778 15.7012 21.716 15.9556 21.1198 15.9945Z" fill="white"/>
</svg>
