<svg width="25" height="35" viewBox="0 0 25 35" fill="none" xmlns="http://www.w3.org/2000/svg">
<g clip-path="url(#clip0_77_124)">
<path d="M7.83875 0.503326V5.46143C8.5075 4.89877 9.22542 4.39291 9.98571 3.95213V0.503326H7.83875Z" fill="white"/>
<path d="M3.5448 0.503326V11.3863C4.08327 10.0438 4.80952 8.79628 5.69176 7.67682V0.503326H3.5448Z" fill="white"/>
<path d="M0 18.0368C0.256758 22.3162 2.0447 26.304 5.102 29.3612C6.64064 30.8999 8.41504 32.1167 10.3435 32.9794V34.4967H24.6565V32.9794C26.585 32.1168 28.3594 30.8999 29.8981 29.3612C32.9553 26.3039 34.7433 22.3162 35.0001 18.0368H0Z" fill="white"/>
<path d="M17.5 8.73332C13.3257 8.73332 9.86763 11.8571 9.33997 15.8898H11.8772C12.3813 13.2445 14.7101 11.2381 17.5 11.2381C17.519 11.2381 17.5382 11.2391 17.5571 11.2393C17.8256 10.587 18.1399 9.95272 18.4998 9.3422C18.6002 9.17192 18.7049 9.00464 18.8117 8.83873C18.3801 8.76948 17.9421 8.73332 17.5 8.73332Z" fill="white"/>
<path d="M24.4744 6.13771C21.1207 8.30634 18.9546 11.9291 18.6205 15.8898H21.1343C21.4913 12.4625 23.5389 9.4312 26.5579 7.81334C25.9243 7.186 25.2263 6.62375 24.4744 6.13771Z" fill="white"/>
<path d="M27.9918 9.49724C25.4362 10.6835 23.6637 13.108 23.297 15.8898H25.8305C26.1877 13.9931 27.4756 12.413 29.2472 11.6786C28.8993 10.9084 28.4778 10.1782 27.9918 9.49724Z" fill="white"/>
<path d="M14.0864 15.8898H16.4652C16.5241 15.0642 16.6506 14.247 16.8427 13.4466C15.5376 13.6899 14.4794 14.6433 14.0864 15.8898Z" fill="white"/>
<path d="M17.5 4.08153C10.7586 4.08153 5.21081 9.28723 4.66345 15.8897H7.17839C7.71727 10.6704 12.1406 6.58635 17.5 6.58635C18.4338 6.58635 19.3542 6.71042 20.2457 6.95488C20.878 6.24729 21.5757 5.59938 22.33 5.02208C20.8376 4.41628 19.2073 4.08153 17.5 4.08153Z" fill="white"/>
</g>
<defs>
<clipPath id="clip0_77_124">
<rect width="35" height="35" fill="white"/>
</clipPath>
</defs>
</svg>
