<svg width="28" height="28" viewBox="0 0 28 28" fill="none" xmlns="http://www.w3.org/2000/svg">
<path d="M21.5469 26.25C21.3627 26.2507 21.183 26.1933 21.0334 26.0859L14 20.9869L6.96666 26.0859C6.8164 26.1949 6.63537 26.2533 6.44974 26.2526C6.26412 26.252 6.08352 26.1923 5.93405 26.0822C5.78458 25.9721 5.674 25.8174 5.61827 25.6403C5.56255 25.4632 5.56459 25.273 5.62408 25.0972L8.36721 16.9723L1.25783 12.0969C1.10384 11.9914 0.987613 11.8394 0.926137 11.6632C0.864661 11.4869 0.861157 11.2957 0.916137 11.1173C0.971116 10.9389 1.0817 10.7828 1.23173 10.6717C1.38175 10.5607 1.56336 10.5005 1.75002 10.5H10.5208L13.1677 2.35431C13.2247 2.17844 13.336 2.02516 13.4855 1.91645C13.635 1.80773 13.8151 1.74918 14 1.74918C14.1849 1.74918 14.365 1.80773 14.5146 1.91645C14.6641 2.02516 14.7753 2.17844 14.8324 2.35431L17.4792 10.5027H26.25C26.4369 10.5027 26.6189 10.5624 26.7694 10.6732C26.9199 10.7841 27.0309 10.9402 27.0862 11.1187C27.1416 11.2972 27.1383 11.4888 27.0769 11.6653C27.0154 11.8418 26.8991 11.994 26.7449 12.0996L19.6328 16.9723L22.3743 25.095C22.4187 25.2265 22.4312 25.3667 22.4108 25.504C22.3903 25.6413 22.3375 25.7717 22.2566 25.8846C22.1758 25.9974 22.0693 26.0894 21.9459 26.153C21.8225 26.2165 21.6857 26.2498 21.5469 26.25Z" fill="#FDFDFF" fill-opacity="0.59"/>
</svg>
