<svg width="8" height="12" viewBox="0 0 8 12" fill="none" xmlns="http://www.w3.org/2000/svg">
<path d="M4 0C1.79175 0 0 1.61275 0 3.6C0 6.8 4 11.2 4 11.2C4 11.2 8 6.8 8 3.6C8 1.61275 6.20825 0 4 0ZM4 5.6C3.68355 5.6 3.37421 5.50616 3.11109 5.33035C2.84797 5.15454 2.64289 4.90466 2.52179 4.61229C2.40069 4.31993 2.36901 3.99823 2.43074 3.68786C2.49248 3.37749 2.64487 3.09239 2.86863 2.86863C3.09239 2.64487 3.37749 2.49248 3.68786 2.43074C3.99823 2.36901 4.31993 2.40069 4.61229 2.52179C4.90466 2.64289 5.15454 2.84797 5.33035 3.11109C5.50616 3.37421 5.6 3.68355 5.6 4C5.59954 4.4242 5.43082 4.8309 5.13086 5.13086C4.8309 5.43082 4.4242 5.59954 4 5.6Z" fill="black"/>
</svg>
