<svg width="13" height="13" viewBox="0 0 13 13" fill="none" xmlns="http://www.w3.org/2000/svg">
<path d="M9.49996 12.25H3.08329V4.66667L7.16663 0.583336L7.89579 1.3125C7.96385 1.38056 8.01985 1.47292 8.06379 1.58959C8.10735 1.70625 8.12913 1.81806 8.12913 1.925V2.12917L7.48746 4.66667H11.25C11.5611 4.66667 11.8333 4.78334 12.0666 5.01667C12.3 5.25 12.4166 5.52222 12.4166 5.83334V7C12.4166 7.06806 12.4069 7.14097 12.3875 7.21875C12.368 7.29653 12.3486 7.36945 12.3291 7.4375L10.5791 11.55C10.4916 11.7444 10.3458 11.9097 10.1416 12.0458C9.93746 12.1819 9.72357 12.25 9.49996 12.25ZM4.24996 11.0833H9.49996L11.25 7V5.83334H5.99996L6.78746 2.625L4.24996 5.1625V11.0833ZM3.08329 4.66667V5.83334H1.33329V11.0833H3.08329V12.25H0.166626V4.66667H3.08329Z" fill="#1C1B1F"/>
</svg>
