<svg width="42" height="47" viewBox="0 0 42 47" fill="none" xmlns="http://www.w3.org/2000/svg">
<g filter="url(#filter0_d_5_269)">
<mask id="mask0_5_269" style="mask-type:alpha" maskUnits="userSpaceOnUse" x="0" y="0" width="42" height="42">
<rect width="42" height="42" fill="#FFF"/>
</mask>
<g mask="url(#mask0_5_269)">
<path d="M12.25 38.5V22.4875C10.7625 22.0792 9.51592 21.2625 8.51025 20.0375C7.50342 18.8125 7 17.3833 7 15.75V3.5H10.5V15.75H12.25V3.5H15.75V15.75H17.5V3.5H21V15.75C21 17.3833 20.4966 18.8125 19.4898 20.0375C18.4841 21.2625 17.2375 22.0792 15.75 22.4875V38.5H12.25ZM29.75 38.5V24.5H24.5V12.25C24.5 9.82917 25.3534 7.76592 27.0603 6.06025C28.7659 4.35342 30.8292 3.5 33.25 3.5V38.5H29.75Z" fill="#1441F7"/>
</g>
</g>
<defs>
<filter id="filter0_d_5_269" x="3" y="3.5" width="34.25" height="43" filterUnits="userSpaceOnUse" color-interpolation-filters="sRGB">
<feFlood flood-opacity="0" result="BackgroundImageFix"/>
<feColorMatrix in="SourceAlpha" type="matrix" values="0 0 0 0 0 0 0 0 0 0 0 0 0 0 0 0 0 0 127 0" result="hardAlpha"/>
<feOffset dy="4"/>
<feGaussianBlur stdDeviation="2"/>
<feComposite in2="hardAlpha" operator="out"/>
<feColorMatrix type="matrix" values="0 0 0 0 0 0 0 0 0 0 0 0 0 0 0 0 0 0 0.25 0"/>
<feBlend mode="normal" in2="BackgroundImageFix" result="effect1_dropShadow_5_269"/>
<feBlend mode="normal" in="SourceGraphic" in2="effect1_dropShadow_5_269" result="shape"/>
</filter>
</defs>
</svg>
