<svg width="13" height="13" viewBox="0 0 13 13" fill="none" xmlns="http://www.w3.org/2000/svg">
<mask id="path-1-inside-1_7_452" fill="white">
<path d="M10.2371 12.2765C10.1459 12.2768 10.0569 12.2481 9.98276 12.1943L6.49932 9.6393L3.01589 12.1943C2.94147 12.2489 2.85181 12.2781 2.75987 12.2778C2.66794 12.2774 2.57849 12.2475 2.50446 12.1924C2.43044 12.1372 2.37567 12.0597 2.34807 11.971C2.32047 11.8822 2.32148 11.7869 2.35094 11.6988L3.70954 7.62773L0.188458 5.18485C0.112189 5.132 0.0546255 5.05585 0.0241782 4.96754C-0.00626917 4.87923 -0.00800472 4.78339 0.0192252 4.69401C0.0464551 4.60463 0.101223 4.5264 0.175528 4.47076C0.249832 4.41511 0.339779 4.38496 0.432225 4.38472H4.77616L6.08709 0.303209C6.11533 0.215091 6.17043 0.138286 6.24449 0.0838135C6.31855 0.029341 6.40776 0 6.49932 0C6.59089 0 6.6801 0.029341 6.75416 0.0838135C6.82822 0.138286 6.88332 0.215091 6.91156 0.303209L8.22249 4.38609H12.5664C12.659 4.38604 12.7491 4.41598 12.8237 4.47152C12.8982 4.52706 12.9532 4.60528 12.9806 4.69473C13.008 4.78417 13.0063 4.88015 12.9759 4.96859C12.9455 5.05703 12.8879 5.1333 12.8115 5.18622L9.28911 7.62773L10.6469 11.6977C10.6689 11.7636 10.6751 11.8339 10.6649 11.9027C10.6548 11.9715 10.6286 12.0368 10.5886 12.0934C10.5486 12.1499 10.4958 12.196 10.4347 12.2278C10.3736 12.2597 10.3058 12.2763 10.2371 12.2765Z"/>
</mask>
<path d="M10.2371 12.2765L10.2353 11.2765L10.2331 11.2765L10.2371 12.2765ZM9.98276 12.1943L9.39132 13.0006L9.39531 13.0035L9.98276 12.1943ZM6.49932 9.6393L7.09075 8.83295L6.49932 8.39916L5.9079 8.83295L6.49932 9.6393ZM3.01589 12.1943L2.42446 11.3879L2.42429 11.388L3.01589 12.1943ZM2.35094 11.6988L3.29931 12.016L3.29952 12.0154L2.35094 11.6988ZM3.70954 7.62773L4.65812 7.94429L4.89537 7.23334L4.27957 6.80611L3.70954 7.62773ZM0.188458 5.18485L0.758489 4.36323L0.758057 4.36293L0.188458 5.18485ZM0.432225 4.38472V3.38472L0.429567 3.38472L0.432225 4.38472ZM4.77616 4.38472V5.38472H5.50529L5.72826 4.69052L4.77616 4.38472ZM6.08709 0.303209L7.03918 0.60901L7.03938 0.6084L6.08709 0.303209ZM6.91156 0.303209L5.95927 0.6084L5.95944 0.608916L6.91156 0.303209ZM8.22249 4.38609L7.27036 4.6918L7.49328 5.38609H8.22249V4.38609ZM12.5664 4.38609V5.38609L12.5669 5.38609L12.5664 4.38609ZM12.8115 5.18622L12.2419 4.3643L12.2419 4.36435L12.8115 5.18622ZM9.28911 7.62773L8.71944 6.80586L8.10323 7.23297L8.3405 7.94419L9.28911 7.62773ZM10.6469 11.6977L9.69828 12.0142L9.69836 12.0144L10.6469 11.6977ZM10.2331 11.2765C10.3552 11.276 10.4732 11.3146 10.5702 11.385L9.39531 13.0035C9.64056 13.1815 9.93653 13.2777 10.241 13.2765L10.2331 11.2765ZM10.5742 11.3879L7.09075 8.83295L5.9079 10.4457L9.39133 13.0006L10.5742 11.3879ZM5.9079 8.83295L2.42446 11.3879L3.60732 13.0006L7.09075 10.4457L5.9079 8.83295ZM2.42429 11.388C2.52169 11.3166 2.6405 11.2773 2.76355 11.2778L2.7562 13.2778C3.06311 13.2789 3.36125 13.1812 3.60749 13.0005L2.42429 11.388ZM2.76355 11.2778C2.8866 11.2782 3.00509 11.3183 3.10193 11.3905L1.907 12.9943C2.15189 13.1767 2.44928 13.2766 2.7562 13.2778L2.76355 11.2778ZM3.10193 11.3905C3.19858 11.4625 3.26819 11.5622 3.30294 11.6739L1.3932 12.268C1.48314 12.5571 1.66229 12.8119 1.907 12.9943L3.10193 11.3905ZM3.30294 11.6739C3.33765 11.7855 3.3364 11.9051 3.29931 12.016L1.40258 11.3817C1.30655 11.6688 1.30329 11.9789 1.3932 12.268L3.30294 11.6739ZM3.29952 12.0154L4.65812 7.94429L2.76097 7.31117L1.40237 11.3823L3.29952 12.0154ZM4.27957 6.80611L0.758489 4.36323L-0.381572 6.00648L3.13951 8.44935L4.27957 6.80611ZM0.758057 4.36293C0.85786 4.4321 0.931181 4.53027 0.969565 4.64159L-0.921209 5.29349C-0.82193 5.58144 -0.633482 5.8319 -0.381141 6.00678L0.758057 4.36293ZM0.969565 4.64159C1.00791 4.7528 1.01006 4.87305 0.975816 4.98544L-0.937366 4.40258C-1.02607 4.69372 -1.02044 5.00567 -0.921209 5.29349L0.969565 4.64159ZM0.975816 4.98544C0.941541 5.09795 0.87196 5.19854 0.774958 5.27119L-0.423902 3.67033C-0.669514 3.85427 -0.848631 4.11132 -0.937366 4.40258L0.975816 4.98544ZM0.774958 5.27119C0.677771 5.34397 0.558619 5.38439 0.434884 5.38472L0.429567 3.38472C0.120939 3.38554 -0.178106 3.48626 -0.423902 3.67033L0.774958 5.27119ZM0.432225 5.38472H4.77616V3.38472H0.432225V5.38472ZM5.72826 4.69052L7.03918 0.609009L5.13499 -0.00259136L3.82406 4.07892L5.72826 4.69052ZM7.03938 0.6084C7.00381 0.719389 6.93373 0.818226 6.837 0.889378L5.65198 -0.721751C5.40712 -0.541654 5.22684 -0.289207 5.13479 -0.00198184L7.03938 0.6084ZM6.837 0.889378C6.74008 0.960662 6.62187 1 6.49932 1V-1C6.19365 -1 5.89702 -0.90198 5.65198 -0.721751L6.837 0.889378ZM6.49932 1C6.37678 1 6.25857 0.960663 6.16165 0.889378L7.34667 -0.721751C7.10163 -0.901981 6.805 -1 6.49932 -1V1ZM6.16165 0.889378C6.06491 0.818225 5.99484 0.719386 5.95927 0.6084L7.86385 -0.00198184C7.7718 -0.289205 7.59153 -0.541652 7.34667 -0.721751L6.16165 0.889378ZM5.95944 0.608916L7.27036 4.6918L9.17461 4.08038L7.86369 -0.00249822L5.95944 0.608916ZM8.22249 5.38609H12.5664V3.38609H8.22249V5.38609ZM12.5669 5.38609C12.443 5.38615 12.3236 5.34601 12.2261 5.27335L13.4212 3.66969C13.1747 3.48595 12.8749 3.38594 12.5659 3.38609L12.5669 5.38609ZM12.2261 5.27335C12.1288 5.20084 12.0589 5.10023 12.0244 4.98764L13.9367 4.40181C13.8474 4.11033 13.6676 3.85328 13.4212 3.66969L12.2261 5.27335ZM12.0244 4.98764C11.99 4.87516 11.992 4.75475 12.0303 4.64338L13.9216 5.29381C14.0207 5.00554 14.026 4.69318 13.9367 4.40181L12.0244 4.98764ZM12.0303 4.64338C12.0686 4.53188 12.142 4.43355 12.2419 4.3643L13.3811 6.00814C13.6338 5.83305 13.8224 5.58219 13.9216 5.29381L12.0303 4.64338ZM12.2419 4.36435L8.71944 6.80586L9.85877 8.44961L13.3812 6.0081L12.2419 4.36435ZM8.3405 7.94419L9.69828 12.0142L11.5955 11.3813L10.2377 7.31127L8.3405 7.94419ZM9.69836 12.0144C9.67063 11.9314 9.66291 11.8432 9.67562 11.7569L11.6543 12.0484C11.6872 11.8246 11.6672 11.5959 11.5954 11.3811L9.69836 12.0144ZM9.67562 11.7569C9.68833 11.6706 9.72125 11.5878 9.77249 11.5155L11.4047 12.6713C11.536 12.4858 11.6213 12.2723 11.6543 12.0484L9.67562 11.7569ZM9.77249 11.5155C9.82378 11.443 9.89215 11.3829 9.97271 11.3409L10.8967 13.1147C11.0995 13.0091 11.2734 12.8568 11.4047 12.6713L9.77249 11.5155ZM9.97271 11.3409C10.0533 11.2989 10.1434 11.2766 10.2353 11.2765L10.2389 13.2765C10.4683 13.276 10.6938 13.2204 10.8967 13.1147L9.97271 11.3409Z" fill="#E3AC1C" mask="url(#path-1-inside-1_7_452)"/>
</svg>
