<svg width="35" height="35" viewBox="0 0 35 35" fill="none" xmlns="http://www.w3.org/2000/svg">
<path d="M25.6659 8.16764H25.6724H25.6659ZM33.7992 5.83414H27.1598L27.8102 3.23374L30.6042 2.28211C31.1985 2.08012 31.5521 1.44861 31.3807 0.84482C31.3371 0.692933 31.2632 0.551486 31.1633 0.429058C31.0634 0.30663 30.9396 0.205773 30.7996 0.132606C30.6595 0.0594382 30.5061 0.0154844 30.3486 0.00341069C30.191 -0.00866301 30.0327 0.011395 29.8831 0.062368L26.4562 1.22912C26.2717 1.29206 26.1059 1.40026 25.9739 1.54382C25.8419 1.68739 25.7481 1.86174 25.7009 2.05095L24.7552 5.83414H15.1993C14.5715 5.83414 14.0327 6.31688 14.0014 6.94474C13.9938 7.1025 14.0183 7.26015 14.0734 7.40816C14.1285 7.55616 14.2131 7.69143 14.322 7.80577C14.431 7.92011 14.562 8.01114 14.7071 8.07335C14.8523 8.13555 15.0086 8.16763 15.1665 8.16764H15.367L15.4399 8.79915C15.4571 8.94662 15.5279 9.08264 15.6388 9.18133C15.7497 9.28002 15.893 9.33449 16.0414 9.33439C18.885 9.33439 21.4122 10.1292 23.3414 11.6329C24.4145 12.4598 25.2844 13.5211 25.8846 14.7357C26.2206 15.4189 26.4685 16.142 26.6225 16.8876C26.6531 17.033 26.7392 17.1606 26.8624 17.2435C27.8542 17.9166 28.5859 18.9089 28.9358 20.0555C29.2857 21.202 29.2328 22.4338 28.7858 23.5462C28.7338 23.6749 28.7299 23.818 28.7749 23.9494C29.0332 24.6897 29.1653 25.4682 29.1657 26.2523C29.1657 27.8814 28.6115 29.4339 27.6053 30.624C27.0349 31.3032 26.3173 31.8436 25.5069 32.2042C25.3667 32.266 25.2565 32.3804 25.2 32.5228C24.8971 33.3118 24.4695 34.047 23.9335 34.7003C23.9112 34.7268 23.8969 34.7591 23.8923 34.7935C23.8877 34.8278 23.8929 34.8627 23.9075 34.8942C23.922 34.9256 23.9452 34.9523 23.9743 34.971C24.0035 34.9898 24.0374 34.9998 24.072 35H27.66C28.5385 34.9964 29.3838 34.664 30.0295 34.0683C30.6752 33.4726 31.0746 32.6567 31.1489 31.7812L33.6425 8.16764H33.8321C33.9901 8.16782 34.1465 8.13589 34.2918 8.07378C34.4372 8.01166 34.5684 7.92066 34.6775 7.8063C34.7866 7.69194 34.8713 7.5566 34.9265 7.4085C34.9817 7.2604 35.0063 7.10262 34.9986 6.94474C34.968 6.31688 34.427 5.83414 33.7992 5.83414Z" fill="white"/>
<path d="M6.80063 22.35C7.03216 22.3489 7.2616 22.3928 7.4757 22.4792C7.68979 22.5656 7.88428 22.6927 8.04791 22.8531L9.18587 23.9679C9.21313 23.9946 9.24549 24.0158 9.28112 24.0303C9.31675 24.0448 9.35494 24.0522 9.39351 24.0522C9.43207 24.0522 9.47026 24.0448 9.50589 24.0303C9.54152 24.0158 9.57389 23.9946 9.60114 23.9679L10.7369 22.8531C10.9005 22.6927 11.095 22.5656 11.3091 22.4792C11.5232 22.3928 11.7527 22.3489 11.9842 22.35H26.4072C26.4843 22.3508 26.5607 22.3366 26.6322 22.3084C26.7038 22.2802 26.7689 22.2385 26.8239 22.1857C26.879 22.1328 26.9229 22.0698 26.9531 22.0004C26.9833 21.9309 26.9992 21.8563 27 21.7807V21.775C26.9992 21.1125 26.7652 20.4705 26.3375 19.9573C25.9098 19.444 25.3146 19.0909 24.6522 18.9575C24.592 16.8235 23.6984 15.0374 22.0468 13.7825C20.5193 12.6153 18.4781 12 16.1413 12H10.8587C5.85342 12 2.46302 14.7866 2.34783 18.9575C1.68538 19.0909 1.09015 19.444 0.662476 19.9573C0.234798 20.4705 0.000826859 21.1125 5.92373e-07 21.775C5.92373e-07 21.9275 0.0618405 22.0738 0.171916 22.1816C0.281992 22.2894 0.431287 22.35 0.586957 22.35H6.80063ZM12.4684 24.65C12.3913 24.6499 12.315 24.6648 12.2437 24.6936C12.1725 24.7225 12.1077 24.7648 12.0532 24.8182L10.4288 26.4102C10.1536 26.6797 9.78041 26.8311 9.3913 26.8311C9.00221 26.8311 8.62904 26.6797 8.35386 26.4102L6.72946 24.8182C6.67491 24.7648 6.61015 24.7225 6.5389 24.6936C6.46765 24.6648 6.39129 24.6499 6.31419 24.65H1.22234C0.946582 24.6488 0.679274 24.7431 0.467673 24.9164C0.256072 25.0896 0.113808 25.3305 0.0660332 25.5966C0.0219556 25.8538 -0.000131883 26.1142 5.92373e-07 26.375C5.92373e-07 28.5737 1.5503 30.3648 3.46745 30.4C3.64573 31.4867 4.07715 32.4686 4.72647 33.2369C5.68688 34.3732 7.0831 35 8.65761 35H18.3424C19.9169 35 21.3131 34.3733 22.2735 33.2355C22.9229 32.4671 23.3543 31.4853 23.5326 30.3986C25.4497 30.3648 27 28.5737 27 26.3736C27.0001 26.1127 26.978 25.8524 26.934 25.5952C26.8859 25.3294 26.7435 25.0888 26.5319 24.9158C26.3203 24.7429 26.0532 24.6487 25.7777 24.65H12.4684Z" fill="white"/>
</svg>
