<svg width="28" height="30" viewBox="0 0 28 30" fill="none" xmlns="http://www.w3.org/2000/svg">
<path d="M20.125 5.57812H7.875C7.64294 5.57812 7.42038 5.48018 7.25628 5.30583C7.09219 5.13148 7 4.89501 7 4.64844C7 4.40187 7.09219 4.1654 7.25628 3.99105C7.42038 3.8167 7.64294 3.71875 7.875 3.71875H20.125C20.3571 3.71875 20.5796 3.8167 20.7437 3.99105C20.9078 4.1654 21 4.40187 21 4.64844C21 4.89501 20.9078 5.13148 20.7437 5.30583C20.5796 5.48018 20.3571 5.57812 20.125 5.57812ZM21.875 8.36719H6.125C5.89294 8.36719 5.67038 8.26924 5.50628 8.09489C5.34219 7.92054 5.25 7.68407 5.25 7.4375C5.25 7.19093 5.34219 6.95446 5.50628 6.78011C5.67038 6.60576 5.89294 6.50781 6.125 6.50781H21.875C22.1071 6.50781 22.3296 6.60576 22.4937 6.78011C22.6578 6.95446 22.75 7.19093 22.75 7.4375C22.75 7.68407 22.6578 7.92054 22.4937 8.09489C22.3296 8.26924 22.1071 8.36719 21.875 8.36719ZM22.9212 26.0312H5.07883C4.42825 26.0305 3.80453 25.7555 3.34451 25.2668C2.88448 24.778 2.62572 24.1153 2.625 23.4241V11.9041C2.62572 11.2128 2.88448 10.5501 3.34451 10.0614C3.80453 9.57258 4.42825 9.29764 5.07883 9.29688H22.9212C23.5717 9.29764 24.1955 9.57258 24.6555 10.0614C25.1155 10.5501 25.3743 11.2128 25.375 11.9041V23.4241C25.3743 24.1153 25.1155 24.778 24.6555 25.2668C24.1955 25.7555 23.5717 26.0305 22.9212 26.0312Z" fill="white" fill-opacity="0.59"/>
</svg>
