<svg width="34" height="34" viewBox="0 0 34 34" fill="none" xmlns="http://www.w3.org/2000/svg">
<path d="M26.0312 13.8125H24.4375V13.4313C24.9732 12.8254 25.3248 12.0791 25.4507 11.2802C25.5767 10.4813 25.4718 9.66308 25.1484 8.92176C24.8251 8.18044 24.2967 7.54692 23.6255 7.09574C22.9542 6.64456 22.1681 6.3945 21.3596 6.375C21.0206 5.19165 20.3908 4.11203 19.5274 3.23464C18.8527 2.5441 18.0463 1.99603 17.1558 1.62292C16.2654 1.2498 15.3092 1.05923 14.3437 1.0625C12.3575 1.0625 10.5068 1.87796 9.09764 3.36546C8.40603 3.1451 7.66505 3.13196 6.96606 3.32767C6.26707 3.52337 5.64064 3.91936 5.164 4.46681C4.68737 5.01426 4.38137 5.68924 4.28373 6.40851C4.1861 7.12778 4.3011 7.85991 4.61456 8.5146C4.11153 8.96107 3.72182 9.52069 3.47755 10.1473C3.23327 10.774 3.14143 11.4497 3.2096 12.1188C3.27776 12.788 3.50398 13.4313 3.8696 13.9958C4.23521 14.5603 4.72977 15.0299 5.31249 15.3657V29.2187C5.31354 30.2047 5.70568 31.15 6.40285 31.8471C7.10002 32.5443 8.04529 32.9364 9.03124 32.9375H20.7187C21.7047 32.9364 22.65 32.5443 23.3471 31.8471C24.0443 31.15 24.4364 30.2047 24.4375 29.2187V28.6875H26.0312C27.2989 28.6861 28.5142 28.1819 29.4105 27.2855C30.3069 26.3892 30.8111 25.1739 30.8125 23.9062V18.5937C30.8111 17.3261 30.3069 16.1108 29.4105 15.2144C28.5142 14.3181 27.2989 13.8139 26.0312 13.8125ZM11.6875 27.625C11.6875 27.9068 11.5755 28.177 11.3763 28.3763C11.177 28.5756 10.9068 28.6875 10.625 28.6875C10.3432 28.6875 10.0729 28.5756 9.87369 28.3763C9.67443 28.177 9.56249 27.9068 9.56249 27.625V17C9.56249 16.7182 9.67443 16.448 9.87369 16.2487C10.0729 16.0494 10.3432 15.9375 10.625 15.9375C10.9068 15.9375 11.177 16.0494 11.3763 16.2487C11.5755 16.448 11.6875 16.7182 11.6875 17V27.625ZM15.9375 27.625C15.9375 27.9068 15.8255 28.177 15.6263 28.3763C15.427 28.5756 15.1568 28.6875 14.875 28.6875C14.5932 28.6875 14.3229 28.5756 14.1237 28.3763C13.9244 28.177 13.8125 27.9068 13.8125 27.625V17C13.8125 16.7182 13.9244 16.448 14.1237 16.2487C14.3229 16.0494 14.5932 15.9375 14.875 15.9375C15.1568 15.9375 15.427 16.0494 15.6263 16.2487C15.8255 16.448 15.9375 16.7182 15.9375 17V27.625ZM20.1875 27.625C20.1875 27.9068 20.0755 28.177 19.8763 28.3763C19.677 28.5756 19.4068 28.6875 19.125 28.6875C18.8432 28.6875 18.5729 28.5756 18.3737 28.3763C18.1744 28.177 18.0625 27.9068 18.0625 27.625V17C18.0625 16.7182 18.1744 16.448 18.3737 16.2487C18.5729 16.0494 18.8432 15.9375 19.125 15.9375C19.4068 15.9375 19.677 16.0494 19.8763 16.2487C20.0755 16.448 20.1875 16.7182 20.1875 17V27.625ZM21.25 12.75C20.6968 12.75 19.8853 12.406 19.4776 11.9989C19.2785 11.7997 19.0083 11.6876 18.7266 11.6875H10.625C10.4073 11.688 10.1951 11.7553 10.0169 11.8804C9.83875 12.0054 9.70331 12.1822 9.62889 12.3868C9.17534 13.6272 8.06171 13.8125 7.43749 13.8125C6.8739 13.8125 6.3334 13.5886 5.93489 13.1901C5.53637 12.7916 5.31249 12.2511 5.31249 11.6875C5.31249 11.1239 5.53637 10.5834 5.93489 10.1849C6.3334 9.78638 6.8739 9.5625 7.43749 9.5625C7.44347 9.5625 8.04311 9.58507 8.52655 9.94765C8.63817 10.0314 8.76519 10.0923 8.90036 10.1269C9.03552 10.1615 9.17618 10.1692 9.31431 10.1495C9.45244 10.1297 9.58533 10.083 9.70539 10.0119C9.82545 9.94082 9.93033 9.84678 10.0141 9.73515C10.0978 9.62353 10.1587 9.49651 10.1933 9.36134C10.2279 9.22618 10.2356 9.08552 10.2159 8.94739C10.1961 8.80926 10.1494 8.67638 10.0783 8.55631C10.0072 8.43625 9.91318 8.33137 9.80155 8.24765C9.11312 7.74564 8.28912 7.46326 7.43749 7.4375C7.12469 7.43769 6.81288 7.47265 6.5078 7.54175C6.40237 7.29929 6.35892 7.0344 6.38137 6.77096C6.40381 6.50752 6.49144 6.2538 6.63636 6.03267C6.78128 5.81153 6.97895 5.62992 7.21154 5.5042C7.44413 5.37848 7.70434 5.3126 7.96874 5.3125C8.21975 5.31129 8.46742 5.36994 8.69124 5.48358C8.91505 5.59722 9.10855 5.76257 9.25569 5.96593C9.37543 6.13109 9.48011 6.30667 9.56847 6.49054C9.5973 6.76132 9.72899 7.01069 9.93636 7.18717C10.1437 7.36366 10.4109 7.4538 10.6828 7.43897C10.9547 7.42414 11.2106 7.30549 11.3975 7.1075C11.5845 6.90951 11.6883 6.6473 11.6875 6.375C11.6875 5.92543 11.4478 5.36761 10.973 4.71484C10.9424 4.673 10.9066 4.63183 10.8767 4.59132C11.8462 3.68156 13.0581 3.1875 14.3437 3.1875C15.027 3.18553 15.7037 3.32076 16.3337 3.58517C16.9637 3.84958 17.5342 4.2378 18.0114 4.72679C18.6082 5.33914 19.0487 6.08618 19.2959 6.90476C19.543 7.72334 19.5894 8.58939 19.4311 9.42968C19.405 9.56677 19.4062 9.70766 19.4346 9.84429C19.4629 9.98093 19.5179 10.1106 19.5964 10.226C19.6749 10.3414 19.7754 10.4402 19.8921 10.5167C20.0088 10.5933 20.1394 10.6461 20.2765 10.6721C20.3422 10.6845 20.4089 10.6907 20.4757 10.6907C20.7227 10.6905 20.962 10.6042 21.1522 10.4466C21.3425 10.2891 21.472 10.0701 21.5183 9.82746C21.5992 9.4022 21.6427 8.97069 21.6484 8.53785C22.1678 8.63721 22.6315 8.92665 22.9488 9.34961C23.2662 9.77257 23.4145 10.2987 23.3647 10.8251C23.3149 11.3516 23.0706 11.8405 22.6796 12.1965C22.2885 12.5524 21.7788 12.7498 21.25 12.75ZM28.6875 23.9062C28.6875 24.6107 28.4076 25.2864 27.9095 25.7845C27.4113 26.2826 26.7357 26.5625 26.0312 26.5625H24.4375V15.9375H26.0312C26.7357 15.9375 27.4113 16.2173 27.9095 16.7155C28.4076 17.2136 28.6875 17.8893 28.6875 18.5937V23.9062Z" fill="white"/>
</svg>
