<svg width="10" height="10" viewBox="0 0 10 10" fill="none" xmlns="http://www.w3.org/2000/svg">
<g clip-path="url(#clip0_6_366)">
<path d="M7.63675 9.375C7.2555 9.375 6.71996 9.23711 5.918 8.78906C4.94281 8.24219 4.18851 7.7373 3.21859 6.76992C2.28343 5.83535 1.82836 5.23027 1.19144 4.07129C0.47191 2.7627 0.594566 2.07676 0.731676 1.78359C0.894957 1.4332 1.13597 1.22363 1.4475 1.01562C1.62444 0.899694 1.81169 0.800316 2.00687 0.71875C2.0264 0.710352 2.04457 0.702344 2.06078 0.695117C2.15746 0.651562 2.30394 0.585742 2.48949 0.656055C2.61332 0.702539 2.72386 0.797656 2.89691 0.968555C3.25179 1.31855 3.73675 2.09805 3.91566 2.48086C4.03578 2.73887 4.11527 2.90918 4.11546 3.1002C4.11546 3.32383 4.00296 3.49629 3.86644 3.68242C3.84086 3.71738 3.81546 3.75078 3.79086 3.7832C3.64222 3.97852 3.60961 4.03496 3.63109 4.13574C3.67464 4.33828 3.99945 4.94121 4.53324 5.47383C5.06703 6.00645 5.65257 6.31074 5.85589 6.3541C5.96097 6.37656 6.01859 6.34258 6.22015 6.18867C6.24906 6.1666 6.27875 6.14375 6.3098 6.1209C6.518 5.96602 6.68246 5.85645 6.90082 5.85645H6.90199C7.09203 5.85645 7.25472 5.93887 7.52425 6.0748C7.87582 6.25215 8.67875 6.73086 9.03089 7.08613C9.20218 7.25879 9.29769 7.36895 9.34437 7.49258C9.41468 7.67871 9.34847 7.82461 9.30531 7.92227C9.29808 7.93848 9.29007 7.95625 9.28168 7.97598C9.19946 8.17081 9.0995 8.35767 8.98304 8.53418C8.77543 8.84473 8.56507 9.08516 8.2139 9.24863C8.03357 9.33393 7.83623 9.37714 7.63675 9.375Z" fill="black"/>
</g>
<defs>
<clipPath id="clip0_6_366">
<rect width="10" height="10" fill="white"/>
</clipPath>
</defs>
</svg>
