<svg width="84" height="85" viewBox="0 0 84 85" fill="none" xmlns="http://www.w3.org/2000/svg">
<g filter="url(#filter0_d_6_355)">
<mask id="mask0_6_355" style="mask-type:alpha" maskUnits="userSpaceOnUse" x="0" y="0" width="84" height="84">
<rect width="84" height="84" fill="#D9D9D9"/>
</mask>
<g mask="url(#mask0_6_355)">
<path d="M24.5 77V44.975C21.525 44.1583 19.0318 42.525 17.0205 40.075C15.0068 37.625 14 34.7667 14 31.5V7H21V31.5H24.5V7H31.5V31.5H35V7H42V31.5C42 34.7667 40.9932 37.625 38.9795 40.075C36.9682 42.525 34.475 44.1583 31.5 44.975V77H24.5ZM59.5 77V49H49V24.5C49 19.6583 50.7068 15.5318 54.1205 12.1205C57.5318 8.70683 61.6583 7 66.5 7V77H59.5Z" fill="#72747A"/>
</g>
</g>
<defs>
<filter id="filter0_d_6_355" x="10" y="7" width="60.5" height="78" filterUnits="userSpaceOnUse" color-interpolation-filters="sRGB">
<feFlood flood-opacity="0" result="BackgroundImageFix"/>
<feColorMatrix in="SourceAlpha" type="matrix" values="0 0 0 0 0 0 0 0 0 0 0 0 0 0 0 0 0 0 127 0" result="hardAlpha"/>
<feOffset dy="4"/>
<feGaussianBlur stdDeviation="2"/>
<feComposite in2="hardAlpha" operator="out"/>
<feColorMatrix type="matrix" values="0 0 0 0 0 0 0 0 0 0 0 0 0 0 0 0 0 0 0.25 0"/>
<feBlend mode="normal" in2="BackgroundImageFix" result="effect1_dropShadow_6_355"/>
<feBlend mode="normal" in="SourceGraphic" in2="effect1_dropShadow_6_355" result="shape"/>
</filter>
</defs>
</svg>
