<svg width="34" height="29" viewBox="0 0 34 29" fill="none" xmlns="http://www.w3.org/2000/svg">
<path d="M33.3704 14.2434C33.3704 12.9046 32.4403 10.4586 30.3977 8.25384C29.2317 7.00845 27.903 6.0197 26.4688 5.3303C26.4211 5.30815 26.3685 5.3088 26.3211 5.33213C26.2738 5.35547 26.2351 5.39982 26.2127 5.45657C26.2029 5.48004 26.1931 5.50271 26.182 5.52618L25.557 6.81312C24.5029 9.07346 23.9482 11.6394 23.949 14.2514C23.9498 16.8634 24.5061 19.4289 25.5616 21.6882L25.5765 21.7198L26.1462 23.0148C26.1764 23.0836 26.2257 23.1364 26.2849 23.1635C26.3441 23.1906 26.4092 23.1901 26.4682 23.1621C31.2606 20.8335 33.3704 16.3065 33.3704 14.2434ZM27.249 14.232C27.033 14.2671 26.8136 14.2173 26.6216 14.0897C26.4295 13.962 26.2745 13.7629 26.1783 13.5202C26.082 13.2776 26.0493 13.0036 26.0849 12.7367C26.1204 12.4698 26.2223 12.2235 26.3763 12.0322C26.5304 11.841 26.7287 11.7144 26.9436 11.6703C27.1585 11.6261 27.3792 11.6667 27.5746 11.7862C27.77 11.9058 27.9303 12.0983 28.0331 12.3367C28.1359 12.5752 28.176 12.8477 28.1478 13.1159C28.1179 13.3989 28.0137 13.6618 27.8511 13.8637C27.6886 14.0655 27.4769 14.195 27.249 14.232V14.232Z" fill="white"/>
<path d="M21.8632 14.2434C21.8623 11.1728 22.5162 8.15675 23.7585 5.50189L23.7663 5.4849L24.0675 4.86409C24.0892 4.81986 24.1021 4.76979 24.1051 4.71808C24.108 4.66638 24.1009 4.61455 24.0844 4.56697C24.0678 4.51938 24.0423 4.47742 24.01 4.44461C23.9777 4.41181 23.9395 4.38912 23.8987 4.37845C23.0549 4.15929 22.1999 4.01351 21.3398 3.94219C21.2384 3.93405 21.1412 3.88901 21.0602 3.81268C19.8036 2.62611 17.3126 0.550813 14.7733 0.0174207C14.5998 -0.0182856 14.4218 0.0010929 14.2559 0.0737528C14.09 0.146413 13.9417 0.269993 13.8246 0.432997C13.7075 0.596002 13.6255 0.793133 13.5863 1.00605C13.547 1.21897 13.5518 1.44076 13.6001 1.65078L14.2923 4.65931C14.3103 4.73728 14.3041 4.82079 14.2748 4.89333C14.2456 4.96588 14.1956 5.02216 14.1345 5.05106C11.7328 6.15912 9.66408 8.18747 8.15525 9.73342C8.0629 9.82728 7.94743 9.87897 7.8281 9.87985C7.70877 9.88074 7.59281 9.83076 7.49957 9.73828C7.29448 9.53593 7.08396 9.33654 6.86801 9.14013C4.28441 6.79693 1.24913 6.48855 1.12139 6.47722C0.959194 6.462 0.796383 6.49411 0.645966 6.57098C0.495549 6.64785 0.361697 6.76735 0.255109 6.91993C0.14852 7.07251 0.07215 7.25394 0.0321023 7.44972C-0.00794554 7.64549 -0.0105606 7.85019 0.024466 8.04745C0.0518402 8.20366 0.623439 11.3409 2.09056 13.8435C2.15661 13.9557 2.19221 14.0911 2.19221 14.23C2.19221 14.369 2.15661 14.5043 2.09056 14.6165C0.623439 17.1184 0.0518402 20.2564 0.024466 20.4126C-0.0105606 20.6099 -0.00794554 20.8146 0.0321023 21.0103C0.07215 21.2061 0.14852 21.3875 0.255109 21.5401C0.361697 21.6927 0.495549 21.8122 0.645966 21.8891C0.796383 21.9659 0.959194 21.998 1.12139 21.9828C1.25174 21.9715 4.28441 21.6591 6.86475 19.3215C7.07549 19.1294 7.28123 18.9346 7.48197 18.7371C7.57528 18.6448 7.69129 18.5949 7.81062 18.596C7.92995 18.597 8.04538 18.6488 8.13765 18.7428C9.653 20.296 11.7256 22.3268 14.1339 23.4373C14.1948 23.4662 14.2447 23.5224 14.2739 23.5947C14.3031 23.6671 14.3094 23.7504 14.2916 23.8283L13.5968 26.8376C13.5485 27.0476 13.5438 27.2694 13.583 27.4823C13.6223 27.6952 13.7042 27.8924 13.8213 28.0554C13.9384 28.2184 14.0868 28.342 14.2526 28.4146C14.4185 28.4873 14.5965 28.5067 14.77 28.471C15.8884 28.2362 18.1514 27.4301 21.0302 24.6805C21.1125 24.6026 21.2112 24.5562 21.3144 24.547C22.1734 24.4771 23.0275 24.3338 23.8706 24.118C23.9104 24.1076 23.9477 24.0859 23.9795 24.0544C24.0113 24.0229 24.0368 23.9827 24.0538 23.9368C24.0708 23.891 24.079 23.8408 24.0776 23.7903C24.0763 23.7398 24.0654 23.6905 24.046 23.6461L23.752 22.9751C22.5134 20.3223 21.8617 17.3099 21.8632 14.2434V14.2434Z" fill="white"/>
</svg>
