<svg width="10" height="8" viewBox="0 0 10 8" fill="none" xmlns="http://www.w3.org/2000/svg">
<path d="M8.75 0H1.25C0.918588 0.000354515 0.600852 0.132164 0.366508 0.366508C0.132164 0.600852 0.000354515 0.918588 0 1.25V6.60714C0.000354515 6.93855 0.132164 7.25629 0.366508 7.49063C0.600852 7.72498 0.918588 7.85679 1.25 7.85714H8.75C9.08141 7.85679 9.39915 7.72498 9.63349 7.49063C9.86784 7.25629 9.99965 6.93855 10 6.60714V1.25C9.99965 0.918588 9.86784 0.600852 9.63349 0.366508C9.39915 0.132164 9.08141 0.000354515 8.75 0ZM8.43348 2.06763L5.2192 4.56763C5.15652 4.61636 5.07939 4.64281 5 4.64281C4.92061 4.64281 4.84348 4.61636 4.7808 4.56763L1.56652 2.06763C1.52875 2.03911 1.49703 2.00337 1.4732 1.96249C1.44937 1.92161 1.4339 1.87639 1.42769 1.82948C1.42148 1.78256 1.42466 1.73488 1.43704 1.68921C1.44942 1.64353 1.47075 1.60077 1.4998 1.56341C1.52885 1.52605 1.56503 1.49484 1.60625 1.47158C1.64746 1.44833 1.69289 1.4335 1.73988 1.42795C1.78688 1.4224 1.83451 1.42625 1.88001 1.43927C1.92551 1.45229 1.96796 1.47422 2.00491 1.50379L5 3.83326L7.99509 1.50379C8.06998 1.44724 8.16413 1.42243 8.25717 1.43474C8.35021 1.44705 8.43466 1.49549 8.49227 1.56958C8.54987 1.64367 8.576 1.73746 8.565 1.83066C8.554 1.92386 8.50675 2.00899 8.43348 2.06763Z" fill="black"/>
</svg>
