<svg width="14" height="14" viewBox="0 0 14 14" fill="none" xmlns="http://www.w3.org/2000/svg">
<path d="M10.6094 12.25C10.1118 12.25 9.62546 12.1025 9.21177 11.826C8.79808 11.5496 8.47564 11.1567 8.28524 10.6971C8.09484 10.2374 8.04502 9.73158 8.14209 9.2436C8.23915 8.75561 8.47874 8.30737 8.83056 7.95556C9.18238 7.60374 9.63062 7.36415 10.1186 7.26708C10.6066 7.17002 11.1124 7.21984 11.5721 7.41024C12.0317 7.60064 12.4246 7.92307 12.701 8.33677C12.9775 8.75046 13.125 9.23683 13.125 9.73437C13.1243 10.4013 12.859 11.0408 12.3874 11.5124C11.9158 11.984 11.2763 12.2493 10.6094 12.25ZM10.6094 8.09375C10.2849 8.09375 9.96769 8.18997 9.69789 8.37024C9.42809 8.55052 9.21781 8.80675 9.09364 9.10653C8.96946 9.40632 8.93697 9.73619 9.00028 10.0544C9.06358 10.3727 9.21983 10.665 9.44928 10.8945C9.67872 11.1239 9.97106 11.2802 10.2893 11.3435C10.6076 11.4068 10.9374 11.3743 11.2372 11.2501C11.537 11.1259 11.7932 10.9157 11.9735 10.6459C12.1538 10.3761 12.25 10.0589 12.25 9.73437C12.2495 9.29941 12.0765 8.8824 11.7689 8.57483C11.4613 8.26727 11.0443 8.09425 10.6094 8.09375ZM3.39063 12.25C2.89308 12.25 2.40671 12.1025 1.99302 11.826C1.57933 11.5496 1.25689 11.1567 1.06649 10.6971C0.87609 10.2374 0.826272 9.73158 0.923338 9.2436C1.0204 8.75561 1.25999 8.30737 1.61181 7.95556C1.96363 7.60374 2.41187 7.36415 2.89985 7.26708C3.38784 7.17002 3.89364 7.21984 4.35331 7.41024C4.81298 7.60064 5.20587 7.92307 5.48229 8.33677C5.75871 8.75046 5.90625 9.23683 5.90625 9.73437C5.90553 10.4013 5.64026 11.0408 5.16864 11.5124C4.69703 11.984 4.05759 12.2493 3.39063 12.25ZM3.39063 8.09375C3.06614 8.09375 2.74894 8.18997 2.47914 8.37024C2.20934 8.55052 1.99906 8.80675 1.87489 9.10653C1.75071 9.40632 1.71822 9.73619 1.78153 10.0544C1.84483 10.3727 2.00108 10.665 2.23053 10.8945C2.45997 11.1239 2.75231 11.2802 3.07056 11.3435C3.38881 11.4068 3.71868 11.3743 4.01847 11.2501C4.31825 11.1259 4.57448 10.9157 4.75476 10.6459C4.93503 10.3761 5.03125 10.0589 5.03125 9.73437C5.03074 9.29941 4.85773 8.8824 4.55016 8.57483C4.2426 8.26727 3.82559 8.09425 3.39063 8.09375ZM8.75 3.5C8.86525 3.5004 8.97944 3.47795 9.08595 3.43394C9.19247 3.38994 9.28921 3.32526 9.37058 3.24364C9.45195 3.16202 9.51633 3.06508 9.56 2.95842C9.60367 2.85176 9.62576 2.73751 9.625 2.62226C9.62628 2.50759 9.60468 2.39382 9.56146 2.28759C9.51825 2.18137 9.4543 2.08482 9.37333 2.00361C9.29237 1.92239 9.19603 1.85813 9.08994 1.81458C8.98385 1.77104 8.87014 1.74908 8.75547 1.75C8.64056 1.74964 8.52671 1.77191 8.42041 1.81556C8.31412 1.8592 8.21746 1.92335 8.13595 2.00435C8.05445 2.08534 7.98969 2.1816 7.94539 2.28762C7.90108 2.39365 7.87809 2.50736 7.87774 2.62226C7.87738 2.73717 7.89965 2.85102 7.94329 2.95732C7.98694 3.06362 8.05109 3.16028 8.13208 3.24178C8.21308 3.32329 8.30934 3.38804 8.41536 3.43235C8.52138 3.47665 8.63509 3.49964 8.75 3.5Z" fill="black"/>
<path d="M10.0502 5.25H8.85363C8.834 5.25001 8.81473 5.24473 8.79785 5.23472C8.78096 5.22471 8.76708 5.21035 8.75766 5.19313L7.88977 3.60254C7.82861 3.48434 7.74049 3.38219 7.63253 3.30438C7.52456 3.22656 7.39979 3.17526 7.26832 3.15462C7.13684 3.13399 7.00236 3.1446 6.87574 3.1856C6.74913 3.2266 6.63395 3.29684 6.53953 3.39063L4.6293 5.31563C4.46882 5.47943 4.37772 5.69883 4.375 5.92813C4.375 6.40391 4.71953 6.57344 4.88086 6.66914C5.66016 7.11813 6.20895 7.44653 6.51 7.62891C6.52601 7.63865 6.53924 7.65234 6.54843 7.66867C6.55762 7.685 6.56247 7.70341 6.5625 7.72215V9.61215C6.5625 9.84758 6.74352 10.0496 6.97895 10.0614C7.03805 10.0643 7.09713 10.0551 7.15259 10.0344C7.20805 10.0138 7.25874 9.98213 7.30161 9.94133C7.34448 9.90054 7.37862 9.85147 7.40198 9.7971C7.42534 9.74272 7.43742 9.68418 7.4375 9.625V7.27344C7.43754 7.20399 7.42104 7.13552 7.38938 7.07371C7.35771 7.0119 7.31178 6.95851 7.25539 6.91797L6.24367 6.19035C6.23097 6.18127 6.22037 6.16957 6.21257 6.15604C6.20477 6.14251 6.19995 6.12747 6.19845 6.11193C6.19695 6.09638 6.19879 6.0807 6.20386 6.06593C6.20892 6.05116 6.21709 6.03764 6.22781 6.02629L7.37625 4.80156C7.38803 4.78896 7.40261 4.77933 7.41882 4.77344C7.43503 4.76755 7.4524 4.76558 7.46952 4.76769C7.48664 4.76979 7.50301 4.77592 7.51731 4.78556C7.53161 4.7952 7.54343 4.80809 7.5518 4.82317L8.14844 5.89996C8.18636 5.96822 8.24186 6.02509 8.30917 6.06466C8.37649 6.10423 8.45317 6.12507 8.53125 6.125H10.0625C10.1218 6.12507 10.1804 6.1131 10.2349 6.0898C10.2894 6.06651 10.3386 6.03239 10.3795 5.98951C10.4205 5.94663 10.4522 5.89588 10.4729 5.84034C10.4936 5.78481 10.5029 5.72565 10.5 5.66645C10.4885 5.43102 10.2856 5.25 10.0502 5.25Z" fill="black"/>
</svg>
