<svg width="10" height="10" viewBox="0 0 10 10" fill="none" xmlns="http://www.w3.org/2000/svg">
<path d="M9.90385 2.85714H7.78846V2.58929C7.78789 1.91382 7.50341 1.26524 6.99557 0.781622C6.48773 0.298009 5.79665 0.0175655 5.06947 0H4.93053C4.20335 0.0175655 3.51227 0.298009 3.00443 0.781622C2.49659 1.26524 2.21211 1.91382 2.21154 2.58929V2.85714H0.0961538C0.0706523 2.85714 0.0461952 2.86655 0.0281628 2.88329C0.0101305 2.90004 0 2.92275 0 2.94643V9.64286C0 9.73758 0.0405218 9.82842 0.112651 9.8954C0.184781 9.96237 0.282609 10 0.384615 10H9.61539C9.71739 10 9.81522 9.96237 9.88735 9.8954C9.95948 9.82842 10 9.73758 10 9.64286V2.94643C10 2.92275 9.98987 2.90004 9.97184 2.88329C9.9538 2.86655 9.92935 2.85714 9.90385 2.85714ZM3.17308 2.61161C3.17308 1.67768 3.9762 0.902679 4.98197 0.892857C5.22333 0.890883 5.46272 0.933293 5.68634 1.01764C5.90997 1.10199 6.11339 1.2266 6.2849 1.38431C6.45641 1.54201 6.5926 1.72967 6.68563 1.93648C6.77866 2.14329 6.82668 2.36516 6.82692 2.58929V2.85714H3.17308V2.61161ZM7.69231 4.64286C7.69231 5.3059 7.40865 5.94178 6.90375 6.41062C6.39884 6.87947 5.71404 7.14286 5 7.14286C4.28596 7.14286 3.60116 6.87947 3.09625 6.41062C2.59135 5.94178 2.30769 5.3059 2.30769 4.64286V3.92857H3.07692V4.64286C3.07692 5.11646 3.27953 5.57066 3.64018 5.90555C4.00083 6.24043 4.48997 6.42857 5 6.42857C5.51003 6.42857 5.99917 6.24043 6.35982 5.90555C6.72047 5.57066 6.92308 5.11646 6.92308 4.64286V3.92857H7.69231V4.64286Z" fill="black"/>
</svg>
