<svg width="32" height="32" viewBox="0 0 32 32" fill="none" xmlns="http://www.w3.org/2000/svg">
<mask id="mask0_6_278" style="mask-type:alpha" maskUnits="userSpaceOnUse" x="0" y="0" width="32" height="32">
<rect width="32" height="32" fill="#D9D9D9"/>
</mask>
<g mask="url(#mask0_6_278)">
<path d="M5.83334 28L3.96667 26.1333L17.6333 12.4667C17.2333 11.5333 17.1778 10.4778 17.4667 9.3C17.7556 8.12222 18.3889 7.06667 19.3667 6.13333C20.5445 4.95556 21.8556 4.26667 23.3 4.06667C24.7445 3.86667 25.9222 4.22222 26.8333 5.13333C27.7445 6.04444 28.1 7.22222 27.9 8.66667C27.7 10.1111 27.0111 11.4222 25.8333 12.6C24.9 13.5778 23.8445 14.2111 22.6667 14.5C21.4889 14.7889 20.4333 14.7333 19.5 14.3333L17.8333 16L27.9667 26.1333L26.1 28L15.9667 17.9333L5.83334 28ZM9.76667 16.6L5.76667 12.6C4.56667 11.4 3.96667 9.96667 3.96667 8.3C3.96667 6.63333 4.56667 5.2 5.76667 4L14.0333 12.3333L9.76667 16.6Z" fill="white"/>
</g>
</svg>
